<svg width="24" height="24" fill="none" xmlns="http://www.w3.org/2000/svg">
	<path fill-rule="evenodd" clip-rule="evenodd" d="M20.994 13.305c.061-.406-.393-.672-.764-.496a6.742 6.742 0 01-.73.295A6.786 6.786 0 0110.896 4.5l.016-.047a6.56 6.56 0 01.279-.683c.176-.37-.09-.825-.496-.764a8.99 8.99 0 00-.893.18h-.003C5.89 4.187 3 7.733 3 11.954A9.047 9.047 0 0020.813 14.2l.001-.003a9.094 9.094 0 00.18-.893zm-1.96 1.487a8.294 8.294 0 01-9.826-9.826 7.54 7.54 0 109.826 9.826z" fill="#253449">
	</path>
</svg>
