<svg width="24" height="24" fill="none" xmlns="http://www.w3.org/2000/svg">
	<path fill-rule="evenodd" clip-rule="evenodd" d="M12 15a3 3 0 100-6 3 3 0 000 6zm0 1.5a4.5 4.5 0 100-9 4.5 4.5 0 000 9zM12 3a.75.75 0 01.75.75v1.5a.75.75 0 01-1.5 0v-1.5A.75.75 0 0112 3zm0 15a.75.75 0 01.75.75v1.5a.75.75 0 01-1.5 0v-1.5A.75.75 0 0112 18zm-9-6a.75.75 0 01.75-.75h1.5a.75.75 0 010 1.5h-1.5A.75.75 0 013 12zm2.47 6.198a.75.75 0 010-1.061l1.06-1.06a.75.75 0 111.061 1.06l-1.06 1.06a.75.75 0 01-1.061 0zm0-12.728a.75.75 0 011.06 0l1.061 1.06a.75.75 0 11-1.06 1.061L5.47 6.531a.75.75 0 010-1.061zM21 12a.75.75 0 00-.75-.75h-1.5a.75.75 0 000 1.5h1.5A.75.75 0 0021 12zm-2.47 6.198a.75.75 0 000-1.061l-1.06-1.06a.75.75 0 00-1.061 1.06l1.06 1.06a.75.75 0 001.061 0zm0-12.728a.75.75 0 00-1.06 0l-1.061 1.06a.75.75 0 101.06 1.06l1.061-1.06a.75.75 0 000-1.06z" fill="#fff">
	</path>
</svg>
