<svg width="24px" height="18pt" viewBox="0 0 320 320" preserveAspectRatio="xMidYMid meet" color="text" xmlns="http://www.w3.org/2000/svg" class="sc-bdfBQB gMfdkq">
	<g transform="translate(0.000000,320.000000) scale(0.100000,-0.100000)">
		<path fill="#253449" d="M1465 3149 c-99 -13 -237 -53 -325 -96 l-75 -37 85 -8 c271 -26 505 -140 696 -339 173 -180 283 -425 299 -665 5 -74 4 -86 -7 -70 -7 11 -39 54 -71 97 -142 191 -361 334 -613 400 -77 21 -112 24 -259 23 -152 0 -180 -3 -270 -27 -119 -32 -295 -117 -386 -186 -364 -277 -519 -743 -393 -1179 51 -175 147 -338 278 -468 69 -68 191 -164 211 -164 3 0 -8 26 -23 58 -169 336 -141 752 72 1082 61 93 190 226 281 289 40 28 76 51 79 51 4 0 -8 -28 -25 -62 -75 -148 -109 -300 -109 -483 0 -141 18 -253 60 -368 166 -454 609 -749 1086 -723 275 15 531 129 721 322 177 179 285 401 314 651 6 52 9 96 7 99 -3 2 -22 -21 -42 -52 -55 -82 -186 -215 -272 -274 -176 -122 -372 -188 -585 -197 -145 -7 -254 6 -374 44 -97 31 -215 82 -215 94 0 5 22 9 49 9 69 0 204 25 286 53 286 98 526 312 650 580 281 607 -50 1326 -695 1511 -147 42 -289 53 -435 35z m-132 -1304 l266 -66 262 66 c144 36 266 64 271 63 4 -2 -77 -95 -182 -206 -104 -112 -190 -205 -190 -208 0 -5 -148 -491 -156 -514 -3 -8 -41 108 -84 259 l-78 274 -138 141 c-187 189 -250 256 -242 256 3 0 126 -29 271 -65z">
		</path>
		<path fill="#253449" d="M925 2820 c-78 -12 -184 -45 -261 -80 -192 -87 -368 -270 -453 -469 -23 -54 -51 -141 -46 -141 1 0 29 32 61 70 113 136 300 273 471 345 297 124 630 133 933 26 l81 -29 -23 25 c-65 70 -210 162 -318 202 -132 49 -320 70 -445 51z">
		</path>
		<path fill="#253449" d="M2795 2521 c14 -34 38 -110 53 -169 24 -98 27 -123 26 -297 -1 -180 -2 -196 -32 -310 -68 -255 -206 -476 -417 -664 -66 -59 -63 -59 67 -9 140 53 290 167 384 291 56 74 135 237 159 327 23 88 31 272 15 366 -29 181 -132 387 -249 498 l-31 30 25 -63z">
		</path>
		<path fill="#253449" d="M717 1205 c-17 -58 -27 -151 -27 -251 0 -184 48 -338 154 -498 128 -192 338 -333 571 -383 89 -20 270 -21 358 -4 37 7 69 17 72 20 2 4 -29 13 -69 19 -248 39 -534 193 -711 384 -167 181 -273 392 -325 647 -11 55 -19 79 -23 66z">
		</path>
	</g>
</svg>
